:SAMPLES-PER-SECOND 30
:FULLY-SPECIFIED
:DEGREES
328
root  12.1453 38.7303 27.5375 -151.614 -76.0778 145.007
RightUpLeg  -17.2036 -7.70461 -5.54629
RightLeg  -5.82662 -17.4418 7.91611
RightFoot  -0.256188 -0.591201 6.05134
RightToes  0.000482159 0.542163 -0.142577
Spine  14.2012 -2.34573 -11.1529
Spine1  2.47975 -4.78498 5.15296
HEad  -5.13193 3.61161 0.00773763
LeftShoulder1  8.33376 -12.5943 -45.1154
LeftArm  -6.50931 -1.16348 -21.8827
LeftForeArm  28.6514 -22.0042 -3.48596
LeftHand  -0.25398 0.0180481 5.50724
RightShoulder  4.22285 7.55224 32.2525
RightArm  -5.80596 -22.4108 40.6877
RightForeArm  12.5965 12.8788 6.34047
RightHand  -1.99777 6.1902 -20.2238
LeftUpLeg  17.1597 5.18864 -7.59878
LeftLeg  9.33511 17.5632 -4.21564
LeftFoot  -19.1074 -0.210389 -4.80064
LeftToes  1.06245e-005 4.65855e-005 -8.18503e-006
329
root  10.5215 38.4297 27.3211 -151.491 -75.9306 144.75
RightUpLeg  -18.1077 -7.48485 -4.90316
RightLeg  -4.6727 -17.1795 7.47862
RightFoot  -1.38684 -0.490532 5.53031
RightToes  0.000482159 0.542163 -0.142577
Spine  14.103 -2.33534 -10.3415
Spine1  2.65077 -4.71841 5.03223
HEad  -5.22684 2.82843 -0.099995
LeftShoulder1  8.31607 -12.6571 -44.8336
LeftArm  -6.65068 -3.05799 -22.2391
LeftForeArm  28.6688 -23.3504 -3.55511
LeftHand  -0.25398 0.0180481 5.50724
RightShoulder  4.27538 7.6567 32.3655
RightArm  -8.90812 -22.0777 40.555
RightForeArm  13.5906 10.9837 6.21326
RightHand  -2.02051 6.39789 -20.1028
LeftUpLeg  19.4793 6.36567 -6.87642
LeftLeg  10.7616 15.6229 -4.37252
LeftFoot  -19.7836 -0.293582 -5.5835
LeftToes  1.06245e-005 4.65855e-005 -8.18503e-006
330
root  8.79673 38.2845 27.0885 -155.268 -76.5366 148.455
RightUpLeg  -19.3074 -8.08947 -3.05318
RightLeg  1.44744 -17.759 5.91074
RightFoot  0.561384 -0.0145387 0.32093
RightToes  0.000482159 0.542163 -0.142577
Spine  14.0083 -2.66989 -7.74135
Spine1  3.16654 -4.89057 4.77956
HEad  -5.636 2.46578 -0.336981
LeftShoulder1  8.37828 -12.7347 -44.9584
LeftArm  -7.40937 -3.27047 -22.5509
LeftForeArm  29.7267 -25.9544 -3.98264
LeftHand  -0.25398 0.0180481 5.50724
RightShoulder  4.39622 7.8945 32.627
RightArm  -9.80633 -21.6192 39.798
RightForeArm  14.0201 9.7539 6.14804
RightHand  -2.03579 6.5237 -20.0462
LeftUpLeg  22.1094 10.1728 -3.61406
LeftLeg  12.5291 10.6038 -3.9006
LeftFoot  -19.1877 -0.359183 -6.87427
LeftToes  1.06245e-005 4.65855e-005 -8.18503e-006
331
root  6.89955 38.1944 26.8119 -162.449 -77.7737 155.65
RightUpLeg  -21.1998 -12.8716 1.11351
RightLeg  9.82502 -13.9617 2.54767
RightFoot  3.42732 0.838823 -6.29149
RightToes  0.000482159 0.542163 -0.142577
Spine  13.6851 -3.5102 -3.8389
Spine1  3.24304 -5.2131 4.27895
HEad  -5.82774 2.47126 -0.7261
LeftShoulder1  8.54828 -12.8634 -45.5317
LeftArm  -8.07794 -1.50865 -22.7709
LeftForeArm  31.6605 -29.4455 -4.65452
LeftHand  -0.25398 0.0180481 5.50724
RightShoulder  4.51507 8.07885 33.0393
RightArm  -9.63768 -21.2227 38.5587
RightForeArm  15.1934 9.14093 6.09057
RightHand  -2.01394 6.4793 -19.9095
LeftUpLeg  24.8418 16.9942 2.66513
LeftLeg  15.5458 1.27598 -2.67526
LeftFoot  -17.85 -0.489901 -10.5712
LeftToes  1.06245e-005 4.65855e-005 -8.18503e-006
332
root  4.97772 38.2035 26.4853 -172.864 -78.1126 166.267
RightUpLeg  -22.8351 -18.6413 6.36046
RightLeg  16.3232 -6.9961 -0.613317
RightFoot  4.42278 1.54483 -10.9704
RightToes  0.000482159 0.542163 -0.142577
Spine  13.3406 -4.05366 0.427774
Spine1  2.87524 -5.0945 3.73903
HEad  -5.38551 2.53768 -1.09769
LeftShoulder1  8.72388 -12.9858 -46.1432
LeftArm  -8.19836 1.63317 -23.3245
LeftForeArm  34.1265 -32.8956 -5.32809
LeftHand  -0.25398 0.0180481 5.50724
RightShoulder  4.60806 8.20808 33.4017
RightArm  -9.74018 -20.7425 37.392
RightForeArm  16.6722 8.76813 5.90539
RightHand  -1.95648 6.33308 -19.5925
LeftUpLeg  25.7134 21.411 8.30522
LeftLeg  20.6466 -5.088 -1.43065
LeftFoot  -13.5499 -0.20005 -15.6336
LeftToes  1.06245e-005 4.65855e-005 -8.18503e-006
333
root  3.17645 38.2394 26.085 179.044 -77.1386 174.619
RightUpLeg  -23.2424 -19.5663 8.98014
RightLeg  21.5844 -4.39602 -2.29575
RightFoot  2.0647 1.56409 -13.11
RightToes  0.000482159 0.542163 -0.142577
Spine  13.0607 -3.91658 3.33312
Spine1  2.48086 -4.47885 3.72716
HEad  -4.58268 2.4952 -1.06697
LeftShoulder1  8.7693 -13.0092 -46.3226
LeftArm  -7.95369 5.16494 -24.4998
LeftForeArm  36.6542 -35.7205 -5.89314
LeftHand  -0.25398 0.0180481 5.50724
RightShoulder  4.69384 8.38118 33.5497
RightArm  -10.5736 -19.7575 36.8258
RightForeArm  16.9765 8.42077 5.63543
RightHand  -1.91567 6.23914 -19.3475
LeftUpLeg  21.9102 18.1737 8.91933
LeftLeg  29.7174 -1.761 -0.692534
LeftFoot  -3.80711 1.16847 -17.8029
LeftToes  1.06245e-005 4.65855e-005 -8.18503e-006
334
root  1.59167 38.2086 25.6488 173.443 -76.5383 -179.43
RightUpLeg  -22.5102 -18.5537 9.7323
RightLeg  25.7359 -5.28054 -3.00384
RightFoot  -1.78688 1.1206 -13.4402
RightToes  0.000482159 0.542163 -0.142577
Spine  12.8163 -3.76744 5.16349
Spine1  2.55082 -3.9859 4.46331
HEad  -3.99427 2.11582 -0.430317
LeftShoulder1  8.71136 -12.9655 -46.1332
LeftArm  -7.38991 8.1696 -25.9175
LeftForeArm  38.6416 -37.6451 -6.28691
LeftHand  -0.25398 0.0180481 5.50724
RightShoulder  4.75934 8.51835 33.6432
RightArm  -11.7079 -18.1436 36.8668
RightForeArm  15.4103 8.55068 5.46058
RightHand  -1.93906 6.27859 -19.5107
LeftUpLeg  15.0662 14.6333 8.79685
LeftLeg  41.3794 0.588824 0.920557
LeftFoot  9.17329 2.69489 -15.2561
LeftToes  1.06245e-005 4.65855e-005 -8.18503e-006
335
root  0.176738 38.161 25.232 166.896 -76.954 -172.51
RightUpLeg  -21.5107 -19.4616 10.8231
RightLeg  28.5691 -5.47214 -3.46567
RightFoot  -5.21556 0.661236 -12.9369
RightToes  0.000482159 0.542163 -0.142577
Spine  12.5492 -3.97786 7.25655
Spine1  3.07904 -3.76729 5.26317
HEad  -3.73263 1.17818 0.443589
LeftShoulder1  8.71459 -12.9808 -46.1065
LeftArm  -6.32509 10.1376 -26.8689
LeftForeArm  39.907 -38.2684 -6.38437
LeftHand  -0.25398 0.0180481 5.50724
RightShoulder  4.76282 8.45095 33.894
RightArm  -12.3755 -16.1516 37.1558
RightForeArm  12.4394 9.74974 5.51212
RightHand  -2.01579 6.42651 -20.0114
LeftUpLeg  7.15308 10.0918 8.68072
LeftLeg  52.4793 1.23311 2.16045
LeftFoot  17.0759 2.80589 -11.3977
LeftToes  1.06245e-005 4.65855e-005 -8.18503e-006
336
root  -1.29527 38.3695 24.7886 163.263 -77.0643 -168.964
RightUpLeg  -18.8574 -19.9689 10.8042
RightLeg  29.2238 -5.43229 -3.53839
RightFoot  -7.57591 0.352725 -12.2282
RightToes  0.000482159 0.542163 -0.142577
Spine  12.199 -3.77286 8.78192
Spine1  3.62235 -3.22885 5.22839
HEad  -3.37251 -0.0924198 0.972932
LeftShoulder1  8.83447 -13.0721 -46.4945
LeftArm  -4.98206 11.2931 -27.1767
LeftForeArm  40.595 -37.3788 -6.1075
LeftHand  -0.25398 0.0180481 5.50724
RightShoulder  4.72559 8.25798 34.2269
RightArm  -11.6318 -13.967 37.4706
RightForeArm  8.68431 12.0086 5.70393
RightHand  -2.11879 6.70684 -20.5306
LeftUpLeg  0.421242 6.53753 8.31081
LeftLeg  60.4943 1.37066 3.19874
LeftFoot  16.9193 2.04676 -8.49102
LeftToes  1.06245e-005 4.65855e-005 -8.18503e-006
337
root  -2.81907 38.7629 24.2948 165.89 -76.1447 -172.211
RightUpLeg  -14.6332 -19.1233 9.27525
RightLeg  28.2334 -5.32318 -3.33704
RightFoot  -9.3809 0.134027 -11.4672
RightToes  0.000482159 0.542163 -0.142577
Spine  11.9135 -2.88344 8.88965
Spine1  4.10584 -2.11884 4.41379
HEad  -2.60207 -1.11888 1.0067
LeftShoulder1  8.93357 -13.1136 -46.9094
LeftArm  -4.08659 12.4135 -27.3029
LeftForeArm  40.5117 -35.3902 -5.5961
LeftHand  -0.25398 0.0180481 5.50724
RightShoulder  4.7236 8.18693 34.4511
RightArm  -8.77206 -11.578 37.8499
RightForeArm  4.67324 14.9 5.77927
RightHand  -2.2485 7.17533 -20.9653
LeftUpLeg  -4.73355 4.97304 7.22099
LeftLeg  64.5105 1.79522 4.7613
LeftFoot  12.7925 1.35538 -6.71774
LeftToes  1.06245e-005 4.65855e-005 -8.18503e-006
338
root  -4.29793 39.0945 23.7938 170.338 -74.6001 -177.32
RightUpLeg  -10.2989 -17.7501 7.2633
RightLeg  26.917 -5.22299 -2.81931
RightFoot  -11.1132 -0.0534062 -10.7553
RightToes  0.000482159 0.542163 -0.142577
Spine  11.659 -1.89444 8.55413
Spine1  4.56376 -0.861179 3.29382
HEad  -1.59978 -1.60899 0.767544
LeftShoulder1  8.90494 -13.0506 -46.937
LeftArm  -3.97618 14.0311 -27.5452
LeftForeArm  39.1088 -32.893 -5.05746
LeftHand  -0.25398 0.0180481 5.50724
RightShoulder  4.7664 8.26369 34.5503
RightArm  -3.89799 -9.05664 38.3571
RightForeArm  0.924885 18.2183 5.50232
RightHand  -2.37005 7.59206 -21.3793
LeftUpLeg  -9.12505 4.43052 5.8764
LeftLeg  65.0448 2.46924 6.44693
LeftFoot  9.43694 0.978116 -5.65176
LeftToes  1.06245e-005 4.65855e-005 -8.18503e-006
339
root  -5.7696 39.3638 23.2968 173.349 -72.913 179.368
RightUpLeg  -6.32451 -15.7412 5.37941
RightLeg  25.3467 -5.72578 -1.80301
RightFoot  -12.5434 -0.192915 -10.2625
RightToes  0.000482159 0.542163 -0.142577
Spine  11.1514 -1.09644 8.71167
Spine1  4.8403 0.25653 1.79715
HEad  -0.656507 -1.69621 0.38302
LeftShoulder1  8.82135 -12.9601 -46.7476
LeftArm  -4.05121 15.9693 -27.6349
LeftForeArm  36.3143 -29.983 -4.52841
LeftHand  -0.25398 0.0180481 5.50724
RightShoulder  4.78907 8.30469 34.601
RightArm  1.2991 -6.57307 38.8918
RightForeArm  -1.491 21.8669 5.1233
RightHand  -2.40022 7.52911 -21.7406
LeftUpLeg  -13.1038 4.17602 4.64211
LeftLeg  62.6781 3.26549 7.45022
LeftFoot  7.17949 0.6295 -4.11403
LeftToes  1.06245e-005 4.65855e-005 -8.18503e-006
